<mxfile host="app.diagrams.net" modified="2024-04-19T06:36:32.692Z" agent="Mozilla/5.0 (Windows NT 10.0; Win64; x64) AppleWebKit/537.36 (KHTML, like Gecko) Chrome/123.0.0.0 Safari/537.36" etag="ZU0bQZkWcBfX_8CCyKvC" version="24.2.5" type="github">
  <diagram name="Page-1" id="H-KBTydI_UYA_MZRslw8">
    <mxGraphModel dx="1434" dy="780" grid="1" gridSize="10" guides="1" tooltips="1" connect="1" arrows="1" fold="1" page="1" pageScale="1" pageWidth="850" pageHeight="1100" math="0" shadow="0">
      <root>
        <mxCell id="0" />
        <mxCell id="1" parent="0" />
        <mxCell id="sLq4gTumPXXHUgxWhQ4M-8" value="" style="edgeStyle=orthogonalEdgeStyle;rounded=0;orthogonalLoop=1;jettySize=auto;html=1;" edge="1" parent="1" source="sLq4gTumPXXHUgxWhQ4M-1" target="sLq4gTumPXXHUgxWhQ4M-7">
          <mxGeometry relative="1" as="geometry" />
        </mxCell>
        <mxCell id="sLq4gTumPXXHUgxWhQ4M-1" value="Backend API" style="rounded=1;whiteSpace=wrap;html=1;" vertex="1" parent="1">
          <mxGeometry x="90" y="110" width="120" height="60" as="geometry" />
        </mxCell>
        <mxCell id="sLq4gTumPXXHUgxWhQ4M-11" value="" style="edgeStyle=orthogonalEdgeStyle;rounded=0;orthogonalLoop=1;jettySize=auto;html=1;" edge="1" parent="1" source="sLq4gTumPXXHUgxWhQ4M-2" target="sLq4gTumPXXHUgxWhQ4M-10">
          <mxGeometry relative="1" as="geometry" />
        </mxCell>
        <mxCell id="sLq4gTumPXXHUgxWhQ4M-2" value="FDM" style="rounded=1;whiteSpace=wrap;html=1;" vertex="1" parent="1">
          <mxGeometry x="600" y="110" width="120" height="60" as="geometry" />
        </mxCell>
        <mxCell id="sLq4gTumPXXHUgxWhQ4M-9" value="" style="edgeStyle=orthogonalEdgeStyle;rounded=0;orthogonalLoop=1;jettySize=auto;html=1;" edge="1" parent="1" source="sLq4gTumPXXHUgxWhQ4M-7" target="sLq4gTumPXXHUgxWhQ4M-2">
          <mxGeometry relative="1" as="geometry" />
        </mxCell>
        <mxCell id="sLq4gTumPXXHUgxWhQ4M-14" value="Input" style="edgeLabel;html=1;align=center;verticalAlign=middle;resizable=0;points=[];" vertex="1" connectable="0" parent="sLq4gTumPXXHUgxWhQ4M-9">
          <mxGeometry x="-0.2118" y="4" relative="1" as="geometry">
            <mxPoint as="offset" />
          </mxGeometry>
        </mxCell>
        <mxCell id="sLq4gTumPXXHUgxWhQ4M-7" value="Data Preprocessing&lt;div&gt;Model&lt;/div&gt;" style="rounded=1;whiteSpace=wrap;html=1;" vertex="1" parent="1">
          <mxGeometry x="310" y="110" width="120" height="60" as="geometry" />
        </mxCell>
        <mxCell id="sLq4gTumPXXHUgxWhQ4M-13" value="" style="edgeStyle=orthogonalEdgeStyle;rounded=0;orthogonalLoop=1;jettySize=auto;html=1;" edge="1" parent="1" source="sLq4gTumPXXHUgxWhQ4M-10">
          <mxGeometry relative="1" as="geometry">
            <mxPoint x="520" y="330" as="targetPoint" />
          </mxGeometry>
        </mxCell>
        <mxCell id="sLq4gTumPXXHUgxWhQ4M-10" value="FDM" style="rounded=1;whiteSpace=wrap;html=1;" vertex="1" parent="1">
          <mxGeometry x="600" y="280" width="120" height="60" as="geometry" />
        </mxCell>
      </root>
    </mxGraphModel>
  </diagram>
</mxfile>
